<svg width="500" height="500" viewBox="0 0 100 100" fill="none" xmlns="http://www.w3.org/2000/svg">
<rect width="100" height="100" rx="50" fill="#EB5757"/>
<g filter="url(#filter0_d)">
<g clip-path="url(#clip0)">
<path d="M77.4564 41.7637H65.0089L58.0264 25.7755C57.6379 24.8859 56.6018 24.4794 55.7121 24.8681C54.8224 25.2566 54.4161 26.2929 54.8047 27.1825L61.1727 41.7638H38.8264L45.1944 27.1825C45.5829 26.2929 45.1767 25.2567 44.287 24.8681C43.3974 24.4794 42.361 24.8857 41.9727 25.7755L34.9902 41.7637H22.5426C20.9143 41.7637 19.7059 43.2378 20.0621 44.7895L26.617 73.3399C26.8773 74.4735 27.9078 75.2793 29.0975 75.2793H70.9016C72.0912 75.2793 73.1218 74.4735 73.3821 73.3399L79.9369 44.7895C80.2932 43.2379 79.0846 41.7637 77.4564 41.7637V41.7637ZM35.3209 47.1548C35.086 47.1548 34.8473 47.1075 34.6182 47.0074C33.7285 46.6189 33.3222 45.5827 33.7108 44.6929L35.0313 41.6693H38.8675L36.9325 46.0999C36.6441 46.7607 35.9984 47.1548 35.3209 47.1548ZM41.2105 65.9043C41.2105 66.8751 40.4234 67.6621 39.4527 67.6621C38.4819 67.6621 37.6949 66.8751 37.6949 65.9043V53.0137C37.6949 52.0429 38.4819 51.2559 39.4527 51.2559C40.4234 51.2559 41.2105 52.0429 41.2105 53.0137V65.9043ZM51.7573 65.9043C51.7573 66.8751 50.9703 67.6621 49.9995 67.6621C49.0288 67.6621 48.2417 66.8751 48.2417 65.9043V53.0137C48.2417 52.0429 49.0288 51.2559 49.9995 51.2559C50.9703 51.2559 51.7573 52.0429 51.7573 53.0137V65.9043ZM62.3042 65.9043C62.3042 66.8751 61.5172 67.6621 60.5464 67.6621C59.5756 67.6621 58.7886 66.8751 58.7886 65.9043V53.0137C58.7886 52.0429 59.5756 51.2559 60.5464 51.2559C61.5172 51.2559 62.3042 52.0429 62.3042 53.0137V65.9043ZM65.3807 47.0074C65.1518 47.1075 64.913 47.1548 64.6782 47.1548C64.0006 47.1548 63.3549 46.7608 63.0664 46.1L61.1314 41.6694H64.9677L66.2881 44.693C66.6767 45.5827 66.2704 46.6189 65.3807 47.0074Z" fill="white"/>
</g>
</g>
<defs>
<filter id="filter0_d" x="16" y="20" width="68" height="68" filterUnits="userSpaceOnUse" color-interpolation-filters="sRGB">
<feFlood flood-opacity="0" result="BackgroundImageFix"/>
<feColorMatrix in="SourceAlpha" type="matrix" values="0 0 0 0 0 0 0 0 0 0 0 0 0 0 0 0 0 0 127 0"/>
<feOffset dy="4"/>
<feGaussianBlur stdDeviation="2"/>
<feColorMatrix type="matrix" values="0 0 0 0 0 0 0 0 0 0 0 0 0 0 0 0 0 0 0.25 0"/>
<feBlend mode="normal" in2="BackgroundImageFix" result="effect1_dropShadow"/>
<feBlend mode="normal" in="SourceGraphic" in2="effect1_dropShadow" result="shape"/>
</filter>
<clipPath id="clip0">
<rect x="20" y="20" width="60" height="60" fill="white"/>
</clipPath>
</defs>
</svg>
